<mxfile host="app.diagrams.net" modified="2024-02-14T12:17:10.650Z" agent="Mozilla/5.0 (Windows NT 10.0; Win64; x64) AppleWebKit/537.36 (KHTML, like Gecko) Chrome/121.0.0.0 Safari/537.36" version="23.1.4" etag="vQfnO5dxP-_ffgIpL6jO" type="github">
  <diagram name="Sayfa -1" id="8EBAUY-beawadm9p5EvS">
    <mxGraphModel>
      <root>
        <mxCell id="0" />
        <mxCell id="1" parent="0" />
      </root>
    </mxGraphModel>
  </diagram>
</mxfile>
